<?xml version="1.0" encoding="UTF-8"?>
<svg xmlns="http://www.w3.org/2000/svg" width="123" height="39" viewBox="0 0 123 39" fill="none">
  <g clip-path="url(#clip0_27_80)">
    <path d="M17.0968 32.7055L0 38.762V23.3957L17.0968 17.3391C21.345 15.8942 24.7886 18.2043 24.7886 22.4266C24.7886 26.6576 21.345 31.2692 17.0968 32.7055Z" fill="#3E5B1D"></path>
    <path d="M13.4888 18.8359L0 23.586V8.19368L13.4888 3.44361C17.7371 2.00734 21.1806 4.30883 21.1806 8.53976C21.1806 12.788 17.7371 17.3996 13.4888 18.8359Z" fill="#3E5B1D"></path>
    <path d="M115.732 12.0958C115.732 12.0958 106.942 11.1441 107.418 6.29882C107.66 3.88485 108.638 2.83792 110.809 2.1544C112.22 1.74774 114.27 1.72178 114.91 2.97635C115.525 1.63526 116.061 0.631602 117.809 0.164382C118.441 -0.0536652 119.118 -0.107276 119.776 0.00858228C120.434 0.12444 121.052 0.405957 121.571 0.82662C122.091 1.24728 122.494 1.79324 122.744 2.41304C122.994 3.03285 123.082 3.70609 123 4.36936C122.533 8.77334 115.732 12.0958 115.732 12.0958Z" fill="#3E5B1D"></path>
    <path d="M122.022 8.81665L110.082 13.013V38.788L122.022 34.5397V8.81665Z" fill="#3E5B1D"></path>
    <path d="M104.182 32.7055L87.0762 38.762V23.3957L104.182 17.3391C108.43 15.8942 111.873 18.2043 111.873 22.4266C111.865 26.6576 108.404 31.2692 104.182 32.7055Z" fill="#3E5B1D"></path>
    <path d="M100.617 18.8359L87.1191 23.586V8.19368L100.617 3.44361C104.865 2.00734 108.308 4.30883 108.308 8.53976C108.265 12.788 104.822 17.3996 100.617 18.8359Z" fill="#3E5B1D"></path>
    <path d="M56.8799 18.8359L43.3911 23.586V8.19368L56.8799 3.44361C61.1282 2.00734 64.5718 4.30883 64.5718 8.53976C64.5718 12.788 61.1282 17.3996 56.8799 18.8359Z" fill="#3E5B1D"></path>
    <path d="M32.3677 2.36204C27.6263 4.09249 23.6636 9.47417 23.1445 14.9251L20.8862 38.7879L44.377 30.2828L41.7813 8.19365C41.1411 3.1494 37.1178 0.648902 32.3677 2.36204Z" fill="#3E5B1D"></path>
    <path d="M76.0614 2.36204C71.3114 4.09249 67.3487 9.47417 66.8382 14.9251L64.5713 38.7879L88.0448 30.2828L85.4491 8.19365C84.8261 3.1494 80.8029 0.648902 76.0614 2.36204Z" fill="#3E5B1D"></path>
    <path d="M68.1884 30.0405L43.3911 38.7879V23.3956L56.7588 18.6455C56.7588 18.6455 68.1884 21.968 68.1884 29.8415V30.0405Z" fill="#3E5B1D"></path>
  </g>
  <defs>
    <clipPath id="clip0_27_80">
      <rect width="123" height="38.7879" fill="white"></rect>
    </clipPath>
  </defs>
</svg>
