<svg width="16" height="15" viewBox="0 0 16 15" fill="none" xmlns="http://www.w3.org/2000/svg">
<g clip-path="url(#clip0_681_932)">
<path d="M3.4546 13.6061V10.5758M3.4546 4.51517V1.48486M1.93945 3.00001H4.96976M1.93945 12.0909H4.96976M8.60612 2.09092L7.5551 4.82357C7.38419 5.26795 7.29873 5.49014 7.16584 5.67704C7.04805 5.84268 6.90333 5.9874 6.73769 6.10518C6.55079 6.23808 6.3286 6.32354 5.88422 6.49445L3.15157 7.54547L5.88422 8.59649C6.3286 8.7674 6.55079 8.85286 6.73769 8.98575C6.90333 9.10354 7.04805 9.24826 7.16584 9.4139C7.29873 9.6008 7.38419 9.82299 7.5551 10.2674L8.60612 13L9.65714 10.2674C9.82805 9.82299 9.91351 9.6008 10.0464 9.4139C10.1642 9.24826 10.3089 9.10354 10.4746 8.98575C10.6614 8.85286 10.8836 8.7674 11.328 8.59649L14.0607 7.54547L11.328 6.49445C10.8836 6.32354 10.6614 6.23808 10.4746 6.10518C10.3089 5.9874 10.1642 5.84268 10.0464 5.67704C9.91351 5.49014 9.82805 5.26795 9.65714 4.82357L8.60612 2.09092Z" stroke="#A4A7AE" stroke-width="1.21212" stroke-linecap="round" stroke-linejoin="round"/>
</g>
<defs>
<clipPath id="clip0_681_932">
<rect width="14.5455" height="14.5455" fill="white" transform="translate(0.727295 0.272705)"/>
</clipPath>
</defs>
</svg>
