<svg width="20" height="20" viewBox="0 0 20 20" fill="none" xmlns="http://www.w3.org/2000/svg">
<path fill-rule="evenodd" clip-rule="evenodd" d="M10 20C15.5183 20 20 15.5183 20 10C20 4.48166 15.5183 0 10 0C4.48166 0 0 4.48166 0 10C0 15.5183 4.48166 20 10 20ZM13.11 4.6571C13.2695 4.11483 12.7432 3.79585 12.2648 4.14673L5.59809 8.89952C5.08772 9.26635 5.16746 10 5.72568 10H10.9091L8.11802 10.9888L6.88995 15.3589C6.73046 15.9011 7.25678 16.2201 7.73525 15.8692L14.4019 11.1164C14.9123 10.7496 14.8325 10.0159 14.2743 10.0159H11.6108L13.11 4.67305V4.6571Z" fill="#0048FE"/>
</svg>
