<svg width="52" height="52" viewBox="0 0 52 52" fill="none" xmlns="http://www.w3.org/2000/svg">
<g filter="url(#filter0_dii_265_1459)">
<path d="M2 11C2 5.47715 6.47715 1 12 1H40C45.5229 1 50 5.47715 50 11V39C50 44.5229 45.5228 49 40 49H12C6.47715 49 2 44.5228 2 39V11Z" fill="#0048FE"/>
<path d="M12 2H40C44.9706 2 49 6.02944 49 11V39C49 43.9706 44.9706 48 40 48H12C7.02944 48 3 43.9706 3 39V11C3 6.02944 7.02944 2 12 2Z" stroke="url(#paint0_linear_265_1459)" stroke-width="2"/>
<path fill-rule="evenodd" clip-rule="evenodd" d="M26 39C33.7257 39 40 32.7257 40 25C40 17.2743 33.7257 11 26 11C18.2743 11 12 17.2743 12 25C12 32.7257 18.2743 39 26 39ZM30.3541 17.5199C30.5774 16.7608 29.8405 16.3142 29.1707 16.8054L19.8373 23.4593C19.1228 23.9729 19.2344 25 20.0159 25H27.2727L23.3652 26.3844L21.6459 32.5024C21.4226 33.2616 22.1595 33.7081 22.8293 33.2169L32.1627 26.563C32.8772 26.0494 32.7656 25.0223 31.9841 25.0223H28.2552L30.3541 17.5423V17.5199Z" fill="white"/>
</g>
<defs>
<filter id="filter0_dii_265_1459" x="0" y="0" width="52" height="52" filterUnits="userSpaceOnUse" color-interpolation-filters="sRGB">
<feFlood flood-opacity="0" result="BackgroundImageFix"/>
<feColorMatrix in="SourceAlpha" type="matrix" values="0 0 0 0 0 0 0 0 0 0 0 0 0 0 0 0 0 0 127 0" result="hardAlpha"/>
<feOffset dy="1"/>
<feGaussianBlur stdDeviation="1"/>
<feColorMatrix type="matrix" values="0 0 0 0 0.0392157 0 0 0 0 0.0496732 0 0 0 0 0.0705882 0 0 0 0.05 0"/>
<feBlend mode="normal" in2="BackgroundImageFix" result="effect1_dropShadow_265_1459"/>
<feBlend mode="normal" in="SourceGraphic" in2="effect1_dropShadow_265_1459" result="shape"/>
<feColorMatrix in="SourceAlpha" type="matrix" values="0 0 0 0 0 0 0 0 0 0 0 0 0 0 0 0 0 0 127 0" result="hardAlpha"/>
<feOffset dy="-2"/>
<feComposite in2="hardAlpha" operator="arithmetic" k2="-1" k3="1"/>
<feColorMatrix type="matrix" values="0 0 0 0 0.0392157 0 0 0 0 0.0496732 0 0 0 0 0.0705882 0 0 0 0.05 0"/>
<feBlend mode="normal" in2="shape" result="effect2_innerShadow_265_1459"/>
<feColorMatrix in="SourceAlpha" type="matrix" values="0 0 0 0 0 0 0 0 0 0 0 0 0 0 0 0 0 0 127 0" result="hardAlpha"/>
<feMorphology radius="1" operator="erode" in="SourceAlpha" result="effect3_innerShadow_265_1459"/>
<feOffset/>
<feComposite in2="hardAlpha" operator="arithmetic" k2="-1" k3="1"/>
<feColorMatrix type="matrix" values="0 0 0 0 0.0392157 0 0 0 0 0.0496732 0 0 0 0 0.0705882 0 0 0 0.18 0"/>
<feBlend mode="normal" in2="effect2_innerShadow_265_1459" result="effect3_innerShadow_265_1459"/>
</filter>
<linearGradient id="paint0_linear_265_1459" x1="26" y1="1" x2="26" y2="49" gradientUnits="userSpaceOnUse">
<stop stop-color="white" stop-opacity="0.12"/>
<stop offset="1" stop-color="white" stop-opacity="0"/>
</linearGradient>
</defs>
</svg>
