<svg width="16" height="15" viewBox="0 0 16 15" fill="none" xmlns="http://www.w3.org/2000/svg">
<g clip-path="url(#clip0_681_935)">
<path d="M11.6364 1.48486L14.0607 3.90911M1.93945 13.6061L2.71303 10.7696C2.7635 10.5846 2.78873 10.492 2.82747 10.4058C2.86187 10.3292 2.90413 10.2563 2.95358 10.1885C3.00928 10.112 3.0771 10.0442 3.21273 9.90856L9.4754 3.64588C9.59541 3.52588 9.65541 3.46588 9.7246 3.4434C9.78546 3.42362 9.85102 3.42362 9.91188 3.4434C9.98107 3.46588 10.0411 3.52588 10.1611 3.64588L11.8996 5.38445C12.0196 5.50445 12.0797 5.56446 12.1021 5.63365C12.1219 5.69451 12.1219 5.76007 12.1021 5.82093C12.0797 5.89012 12.0196 5.95012 11.8996 6.07013L5.63697 12.3328C5.50134 12.4684 5.43352 12.5362 5.35708 12.5919C5.28921 12.6414 5.21638 12.6837 5.13977 12.7181C5.05348 12.7568 4.96095 12.782 4.7759 12.8325L1.93945 13.6061Z" stroke="#A4A7AE" stroke-width="1.21212" stroke-linecap="round" stroke-linejoin="round"/>
</g>
<defs>
<clipPath id="clip0_681_935">
<rect width="14.5455" height="14.5455" fill="white" transform="translate(0.727295 0.272705)"/>
</clipPath>
</defs>
</svg>
