<svg viewBox="0 0 24 24" xmlns="http://www.w3.org/2000/svg"><path d="M11.34 2.281C7.073 2.553 3.439 5.66 2.499 9.84a10.086 10.086 0 0 0 0 4.32 9.76 9.76 0 0 0 7.341 7.341c1.393.313 2.93.312 4.336-.003 3.289-.739 5.985-3.188 7.068-6.422a9.928 9.928 0 0 0 .257-5.236 9.76 9.76 0 0 0-7.341-7.341 10.445 10.445 0 0 0-2.82-.218m1.621 1.521a8.318 8.318 0 0 1 5.894 3.608c.543.802 1.034 1.968 1.222 2.899.124.611.163 1.019.163 1.691 0 1.332-.263 2.465-.845 3.642a8.146 8.146 0 0 1-3.753 3.753c-1.177.582-2.31.845-3.642.845a7.867 7.867 0 0 1-3.626-.836 8.266 8.266 0 0 1-4.572-6.443c-.054-.436-.054-1.486 0-1.922.195-1.582.857-3.123 1.846-4.299.337-.4.751-.811 1.168-1.159 1.084-.904 2.682-1.585 4.168-1.775.395-.051 1.579-.053 1.977-.004m-4.48 4.027c-.253.09-.57.417-.657.68-.058.173-.067.335-.056 1.021.012.794.015.82.111.961a.756.756 0 0 0 1.242 0c.092-.134.1-.186.112-.698l.013-.553h1.994v5.514l-.636.013-.637.013-.153.123a.714.714 0 0 0-.294.597c0 .248.093.437.294.597l.153.123 1.976.011c1.885.011 1.983.008 2.126-.066.285-.146.411-.35.411-.665 0-.314-.126-.519-.408-.664-.126-.064-.237-.076-.73-.076h-.582V9.24h1.994l.013.553c.012.512.02.564.112.698a.756.756 0 0 0 1.242 0c.096-.141.099-.167.111-.961.015-.989-.014-1.118-.328-1.432-.359-.358-.127-.338-3.921-.335-2.92.003-3.345.011-3.502.066" fill-rule="evenodd" fill="#0048fe"/></svg>