<svg viewBox="0 0 24 24" xmlns="http://www.w3.org/2000/svg"><path d="M3.84 2.265a1.794 1.794 0 0 0-1.514 1.23c-.056.173-.066.402-.066 1.485 0 1.412.013 1.515.243 1.9.223.372.597.673.972.78.102.03.316.066.475.081l.29.027v8.464l-.29.027c-.522.05-.833.182-1.163.496a1.996 1.996 0 0 0-.471.785c-.08.287-.08 2.633 0 2.92.154.55.624 1.034 1.179 1.214.173.056.402.066 1.485.066 1.412 0 1.515-.013 1.9-.243.372-.223.673-.597.78-.972.03-.102.066-.315.081-.475l.027-.29h8.462l.027.29c.015.159.052.373.082.475.11.377.409.75.781.972.385.23.488.243 1.9.243 1.083 0 1.312-.01 1.485-.066a1.852 1.852 0 0 0 1.179-1.214c.08-.287.08-2.633 0-2.92a1.996 1.996 0 0 0-.471-.785c-.33-.314-.641-.446-1.163-.496l-.29-.027V7.768l.29-.027c.16-.015.373-.051.475-.081.375-.107.749-.408.972-.78.23-.385.243-.488.243-1.9 0-1.083-.01-1.312-.066-1.485a1.852 1.852 0 0 0-1.214-1.179c-.287-.08-2.633-.08-2.92 0a1.996 1.996 0 0 0-.785.471c-.313.329-.448.645-.498 1.163l-.027.29H7.768l-.027-.29c-.037-.394-.109-.625-.273-.877a1.745 1.745 0 0 0-.582-.571c-.349-.217-.451-.231-1.726-.243a29.52 29.52 0 0 0-1.32.006m2.327 1.561c.067.061.073.152.073 1.167 0 .968-.008 1.11-.066 1.174-.061.067-.152.073-1.167.073-.968 0-1.11-.008-1.174-.066-.067-.061-.073-.152-.073-1.167 0-.968.008-1.11.066-1.174.061-.067.152-.073 1.167-.073.968 0 1.11.008 1.174.066m14 0c.067.061.073.152.073 1.167 0 .968-.008 1.11-.066 1.174-.061.067-.152.073-1.167.073-.968 0-1.11-.008-1.174-.066-.067-.061-.073-.152-.073-1.167 0-.968.008-1.11.066-1.174.061-.067.152-.073 1.167-.073.968 0 1.11.008 1.174.066m-3.91 2.224c.037.391.11.623.275.877.33.509.752.751 1.418.814l.29.027v8.464l-.29.027c-.394.037-.625.109-.877.273-.508.329-.753.755-.816 1.418l-.027.29H7.768l-.027-.29c-.063-.666-.305-1.088-.814-1.418-.252-.164-.483-.236-.877-.273l-.29-.027V7.768l.29-.027c.666-.063 1.088-.305 1.418-.814.164-.252.236-.483.273-.877l.027-.29h8.462l.027.29M6.167 17.826c.067.061.073.152.073 1.167 0 .968-.008 1.11-.066 1.174-.061.067-.152.073-1.167.073-.968 0-1.11-.008-1.174-.066-.067-.061-.073-.152-.073-1.167 0-.968.008-1.11.066-1.174.061-.067.152-.073 1.167-.073.968 0 1.11.008 1.174.066m14 0c.067.061.073.152.073 1.167 0 .968-.008 1.11-.066 1.174-.061.067-.152.073-1.167.073-.968 0-1.11-.008-1.174-.066-.067-.061-.073-.152-.073-1.167 0-.968.008-1.11.066-1.174.061-.067.152-.073 1.167-.073.968 0 1.11.008 1.174.066" fill-rule="evenodd" fill="#0048fe"/></svg>