<svg data-name="Layer 3" xmlns="http://www.w3.org/2000/svg" viewBox="0 0 24 24"><path d="M3.66 4.279c-1.087.129-2 .912-2.308 1.981l-.092.32v10.84l.092.32a2.797 2.797 0 0 0 1.908 1.908l.32.092h16.84l.32-.092a2.797 2.797 0 0 0 1.908-1.908l.092-.32V6.58l-.092-.32a2.822 2.822 0 0 0-1.888-1.907l-.3-.092-8.28-.005c-4.554-.004-8.388.007-8.52.023m16.794 1.562c.29.109.596.415.705.705.08.214.081.29.081 5.454s-.001 5.24-.081 5.454c-.109.29-.415.596-.705.705-.215.08-.275.081-8.454.081s-8.239-.001-8.454-.081a1.336 1.336 0 0 1-.705-.707c-.081-.216-.082-.265-.072-5.525L2.78 6.62l.087-.162c.157-.293.484-.573.773-.661.055-.016 3.812-.032 8.348-.034 8.195-.003 8.25-.002 8.466.078M5.746 8.298a.74.74 0 0 0-.271 1.227.747.747 0 0 0 1.264-.401c.06-.351-.185-.747-.52-.839-.203-.057-.283-.054-.473.013m3 0a.74.74 0 0 0-.271 1.227.747.747 0 0 0 1.264-.401c.06-.351-.185-.747-.52-.839-.203-.057-.283-.054-.473.013m3 0a.74.74 0 0 0-.271 1.227c.542.542 1.444.014 1.244-.729-.059-.218-.288-.453-.5-.511-.203-.057-.283-.054-.473.013m3 0a.74.74 0 0 0-.271 1.227c.542.542 1.444.014 1.244-.729-.059-.218-.288-.453-.5-.511-.203-.057-.283-.054-.473.013m3 0a.74.74 0 0 0-.271 1.227c.542.542 1.444.014 1.244-.729-.059-.218-.288-.453-.5-.511-.203-.057-.283-.054-.473.013m-12 3a.74.74 0 0 0-.271 1.227c.542.542 1.444.014 1.244-.729-.059-.218-.288-.453-.5-.511-.203-.057-.283-.054-.473.013m3 0a.74.74 0 0 0-.271 1.227c.542.542 1.444.014 1.244-.729-.059-.218-.288-.453-.5-.511-.203-.057-.283-.054-.473.013m3 0a.74.74 0 0 0-.271 1.227.747.747 0 0 0 1.264-.401c.06-.351-.185-.747-.52-.839-.203-.057-.283-.054-.473.013m3 0a.74.74 0 0 0-.271 1.227.747.747 0 0 0 1.264-.401c.06-.351-.185-.747-.52-.839-.203-.057-.283-.054-.473.013m3 0a.74.74 0 0 0-.271 1.227.747.747 0 0 0 1.264-.401c.06-.351-.185-.747-.52-.839-.203-.057-.283-.054-.473.013m-12 3a.74.74 0 0 0-.271 1.227c.542.542 1.444.014 1.244-.729-.059-.218-.288-.453-.5-.511-.203-.057-.283-.054-.473.013m3.069-.02c-.484.115-.717.726-.432 1.13a.939.939 0 0 0 .277.248c.158.083.205.084 3.218.095 2.142.008 3.122-.002 3.273-.033.751-.156.78-1.245.038-1.432-.21-.052-6.156-.06-6.374-.008m8.931.02a.74.74 0 0 0-.271 1.227.747.747 0 0 0 1.264-.401c.06-.351-.185-.747-.52-.839-.203-.057-.283-.054-.473.013" fill-rule="evenodd" fill="#0048fe"/></svg>