<svg viewBox="0 0 24 24" xmlns="http://www.w3.org/2000/svg"><path d="M10.037 4.332c-.1.029-.275.105-.388.17-.114.065-1.067.847-2.118 1.738L5.62 7.86l-1.26.022c-1.183.02-1.273.026-1.48.11a1.858 1.858 0 0 0-1.007.998l-.093.23v5.56l.093.23c.178.44.557.816 1.007.998.206.083.299.09 1.481.11l1.262.022 1.818 1.54c2.15 1.821 2.089 1.772 2.386 1.911.21.098.277.109.673.109.412 0 .457-.008.71-.128.376-.178.677-.474.861-.847l.149-.301.011-6.32c.011-6.929.025-6.5-.221-6.954-.144-.267-.482-.572-.794-.718-.222-.104-.323-.126-.63-.138a2.13 2.13 0 0 0-.549.038m.63 1.515.093.087V18.055l-.087.092c-.048.051-.126.093-.173.093-.055 0-.825-.627-2.143-1.744-1.131-.959-2.107-1.77-2.169-1.802-.091-.047-.354-.057-1.431-.055l-1.319.003-.099-.099-.099-.099V9.556l.099-.099.099-.098 1.327.002 1.328.003.171-.112c.095-.062 1.067-.872 2.161-1.802 1.186-1.007 2.021-1.69 2.069-1.69.045 0 .123.039.173.087M15.74 8.7a1.87 1.87 0 0 1-.147.036c-.254.056-.511.411-.511.704 0 .277.126.437 1.154 1.46.552.55 1.004 1.018 1.004 1.04 0 .022-.452.49-1.004 1.04-1.02 1.015-1.153 1.183-1.155 1.451a.812.812 0 0 0 .418.679c.159.082.49.078.662-.009.076-.038.598-.527 1.16-1.085l1.02-1.015 1.02 1.022c.56.562 1.073 1.051 1.138 1.085a.852.852 0 0 0 .327.063.73.73 0 0 0 .618-1.133c-.063-.098-.549-.61-1.079-1.137l-.964-.96 1.015-1.02c.558-.562 1.044-1.079 1.08-1.149.094-.188.083-.508-.026-.7-.177-.316-.66-.465-.971-.3-.065.034-.578.523-1.138 1.085l-1.02 1.022-1.02-1.015c-.562-.558-1.075-1.042-1.141-1.074-.126-.062-.372-.113-.44-.09" fill-rule="evenodd" fill="#0048fe"/></svg>