<svg xmlns="http://www.w3.org/2000/svg" viewBox="0 0 24 24"><path d="M5.74 4.266a3.841 3.841 0 0 0-2.334 1.031c-.526.494-.95 1.287-1.093 2.045-.037.194-.053.671-.053 1.578 0 1.29.001 1.301.093 1.449.357.574 1.223.443 1.363-.207.026-.123.044-.667.044-1.356 0-1.271.021-1.425.25-1.863.165-.314.619-.768.933-.933.507-.266.065-.25 7.057-.25 6.994 0 6.554-.016 7.054.25.466.249.868.708 1.073 1.224.085.214.091.298.111 1.606.022 1.356.024 1.383.115 1.529a.74.74 0 0 0 1.368-.235c.071-.342.029-2.536-.056-2.909-.334-1.469-1.393-2.529-2.89-2.894-.251-.061-.828-.068-6.575-.073a830.09 830.09 0 0 0-6.46.008m-3.925 8.012c-.484.115-.717.726-.432 1.13.193.273.35.328.98.346.71.019.953-.03 1.156-.233.399-.399.212-1.098-.33-1.235-.201-.05-1.173-.056-1.374-.008m4.796.001a.858.858 0 0 0-.478.373c-.093.18-.087.542.012.712.043.074.156.189.25.255.167.118.182.12.741.135.74.019.978-.028 1.183-.233.41-.41.206-1.116-.357-1.237-.23-.049-1.151-.053-1.351-.005m4.615.005c-.338.08-.546.352-.546.716 0 .373.206.635.564.717.228.053 1.284.053 1.512 0 .358-.082.564-.344.564-.717s-.206-.635-.564-.717c-.215-.05-1.317-.049-1.53.001m4.781.001c-.533.126-.722.84-.326 1.236.205.205.444.252 1.179.233.535-.014.576-.021.729-.122a.699.699 0 0 0 .344-.632.7.7 0 0 0-.345-.633c-.157-.104-.182-.107-.785-.115-.343-.004-.701.011-.796.033m4.647-.007c-.645.154-.786 1.02-.22 1.353.178.104.213.11.83.123.819.018 1.046-.024 1.255-.233.399-.399.212-1.098-.33-1.235-.202-.05-1.331-.056-1.535-.008M2.815 15.277a.8.8 0 0 0-.462.354c-.089.143-.093.181-.092.949.002 1.092.093 1.531.458 2.208a3.736 3.736 0 0 0 2.623 1.899c.409.078 12.907.078 13.316 0a3.768 3.768 0 0 0 3.004-2.912c.084-.388.122-1.61.06-1.909a.74.74 0 0 0-1.369-.235c-.087.14-.094.201-.116 1.029-.021.777-.034.906-.112 1.106a2.426 2.426 0 0 1-1.071 1.224c-.5.266-.06.25-7.054.25-6.992 0-6.55.016-7.057-.25-.314-.165-.768-.619-.933-.933-.206-.394-.25-.633-.251-1.375-.001-.731-.037-.959-.179-1.146-.159-.209-.502-.325-.765-.259" fill-rule="evenodd" fill="#0048fe"/></svg>