<svg viewBox="0 0 24 24" xmlns="http://www.w3.org/2000/svg"><path d="M18.18 4.267c-.185.098-.265.179-.345.353-.167.364-.058.681.364 1.056 1.249 1.11 2.151 2.94 2.466 5.004.087.565.098 1.954.02 2.52-.286 2.09-1.233 4.03-2.524 5.165-.305.269-.418.486-.392.757a.735.735 0 0 0 .74.678c.247 0 .38-.074.77-.431 1.198-1.097 2.186-2.847 2.637-4.673.898-3.631-.086-7.528-2.504-9.925-.227-.226-.484-.446-.571-.49-.19-.098-.492-.104-.661-.014m-8.143.065c-.1.029-.275.105-.388.17-.114.065-1.067.847-2.118 1.738L5.62 7.86l-1.26.022c-1.183.02-1.273.026-1.48.11a1.858 1.858 0 0 0-1.007.998l-.093.23v5.56l.093.23c.178.44.556.815 1.007.998.207.084.297.09 1.48.11l1.26.022 1.908 1.62c2.286 1.941 2.285 1.94 2.972 1.94.412 0 .457-.008.71-.128.378-.179.68-.476.862-.85l.148-.302V5.58l-.128-.27a1.838 1.838 0 0 0-.838-.857c-.259-.128-.333-.146-.663-.158a2.077 2.077 0 0 0-.554.037m.63 1.515.093.087V18.055l-.087.092c-.048.051-.125.093-.172.093-.054 0-.835-.635-2.143-1.745-1.132-.959-2.116-1.769-2.187-1.8-.101-.043-.41-.055-1.432-.055H3.436l-.098-.098-.098-.098V9.556l.098-.098.098-.098h1.303c1.021 0 1.332-.012 1.432-.055.071-.031 1.055-.841 2.186-1.8 1.224-1.039 2.09-1.745 2.137-1.745.045 0 .123.039.173.087m4.574 1.494a.722.722 0 0 0-.441.679c0 .265.119.465.409.684.512.386.774.695 1.056 1.247.331.649.468 1.247.469 2.049.001 1.408-.514 2.542-1.483 3.264-.331.246-.451.437-.451.716 0 .449.375.78.824.73.248-.028.644-.296 1.077-.729.719-.72 1.178-1.606 1.428-2.758.073-.341.087-.53.087-1.223 0-.912-.059-1.302-.301-1.988-.381-1.08-1.075-2.031-1.849-2.53-.315-.203-.584-.249-.825-.141" fill-rule="evenodd" fill="#0048fe"/></svg>