<svg viewBox="0 0 24 24" xmlns="http://www.w3.org/2000/svg"><path d="M11.9 3.259a1.795 1.795 0 0 1-.16.04c-.09.02-.746.65-2.594 2.494C7.785 7.15 6.535 8.422 6.368 8.62c-.923 1.098-1.457 2.306-1.671 3.78-.091.631-.063 1.763.059 2.367.466 2.314 1.918 4.202 4.025 5.235 2.22 1.088 4.919.967 7.019-.314 1.818-1.11 2.982-2.774 3.446-4.928.079-.364.091-.539.092-1.32.001-.584-.017-1.005-.052-1.2-.242-1.352-.708-2.424-1.498-3.44-.241-.31-5.235-5.332-5.408-5.438-.116-.071-.399-.132-.48-.103m2.366 4.071c2.519 2.525 2.683 2.718 3.082 3.61.4.896.564 1.752.519 2.716-.039.839-.218 1.523-.611 2.33a5.513 5.513 0 0 1-1.097 1.533 6.106 6.106 0 0 1-3.001 1.626c-.485.107-1.831.107-2.318 0a6.14 6.14 0 0 1-1.489-.532c-1.693-.864-2.834-2.421-3.158-4.313-.143-.832-.059-1.912.213-2.74a6.11 6.11 0 0 1 .906-1.74c.163-.217 4.637-4.74 4.688-4.74.012 0 1.032 1.013 2.266 2.25" fill-rule="evenodd" fill="#0048fe"/></svg>