<svg viewBox="0 0 24 24" xmlns="http://www.w3.org/2000/svg"><path d="M10.78 4.281a7.014 7.014 0 0 0-6.098 4.594c-.453 1.228-.538 2.67-.236 4.005.567 2.509 2.573 4.551 5.108 5.199 1.089.278 2.423.27 3.518-.02.768-.203 1.741-.661 2.282-1.073.125-.095.25-.186.28-.204.038-.022.483.396 1.52 1.429 1.393 1.388 1.475 1.462 1.656 1.5.58.12 1.021-.321.901-.901-.038-.181-.112-.263-1.5-1.656-1.033-1.037-1.451-1.482-1.429-1.52.018-.03.109-.155.204-.28.412-.541.87-1.514 1.073-2.282.29-1.095.298-2.429.02-3.518-.59-2.309-2.276-4.131-4.559-4.928-.797-.278-1.835-.408-2.74-.345M12.4 5.86c2.56.567 4.399 2.82 4.4 5.39.001 2.472-1.623 4.647-3.979 5.329a5.492 5.492 0 0 1-5.444-1.405 5.57 5.57 0 0 1-1.524-2.814c-.103-.48-.103-1.679-.001-2.16a5.595 5.595 0 0 1 1.524-2.824c.836-.835 1.821-1.343 3.024-1.559.407-.073 1.592-.048 2 .043" fill-rule="evenodd" fill="#0048fe"/></svg>