<svg viewBox="0 0 24 24" xmlns="http://www.w3.org/2000/svg"><path d="M3.72 3.805c-.262.104-.451.395-.451.695a.75.75 0 0 0 .464.697c.158.06 16.376.06 16.534 0a.75.75 0 0 0 .464-.697.75.75 0 0 0-.464-.697c-.151-.058-16.403-.055-16.547.002m2 5c-.262.104-.451.395-.451.695a.75.75 0 0 0 .464.697c.158.06 12.376.06 12.534 0a.75.75 0 0 0 .464-.697.75.75 0 0 0-.464-.697c-.151-.058-12.403-.055-12.547.002m-2 5c-.262.104-.451.395-.451.695a.75.75 0 0 0 .464.697c.158.06 16.376.06 16.534 0a.75.75 0 0 0 .464-.697.75.75 0 0 0-.464-.697c-.151-.058-16.403-.055-16.547.002m4 5c-.262.104-.451.395-.451.695a.75.75 0 0 0 .464.697c.077.03 1.429.043 4.267.043s4.19-.013 4.267-.043a.75.75 0 0 0 .464-.697.75.75 0 0 0-.464-.697c-.15-.057-8.404-.055-8.547.002" fill-rule="evenodd" fill="#0048fe"/></svg>