<svg width="97" height="97" viewBox="0 0 97 97" fill="none" xmlns="http://www.w3.org/2000/svg">
<g clip-path="url(#clip0_421_355)">
<path d="M30.3731 86.8352C17.1771 80.5706 7.69938 67.7383 6.26459 52.5417H0.202087C2.26334 77.4383 23.0779 97 48.5 97C49.4094 97 50.2783 96.9192 51.1675 96.8585L35.7688 81.4396L30.3731 86.8352ZM48.5 0C47.5906 0 46.7217 0.0808333 45.8325 0.141458L61.2313 15.5604L66.6067 10.185C79.8229 16.4294 89.3006 29.2617 90.7354 44.4583H96.7979C94.7367 19.5617 73.9221 0 48.5 0Z" fill="black"/>
<path d="M32.41 49.97H35.647C38.7963 49.97 40.7901 51.8128 40.8145 54.3575C40.8535 56.9754 38.7329 58.8376 35.5203 58.8376C32.605 58.8181 30.4649 57.2533 30.3138 55.1521H25C25.1462 59.6079 28.8561 63.3811 35.4959 63.3811C41.5409 63.3811 46.6353 60.1636 46.5719 54.6159C46.5085 49.97 42.9303 47.8884 40.2734 47.6349V47.3326C42.4184 46.9914 45.7578 44.7635 45.6749 40.6295C45.6115 36.2128 41.7749 32.9758 35.6665 33.0001C29.2803 33.0245 25.7069 36.5784 25.5558 41.1414H30.9329C31.0401 39.2353 32.8 37.4803 35.4959 37.4803C38.0894 37.4803 40.0199 39.089 40.0199 41.4436C40.0394 43.7788 38.1527 45.5143 35.4959 45.5143H32.4149L32.41 49.97ZM49.9893 33.5559V62.801H60.6606C69.4844 62.801 73.75 57.4044 73.75 48.1029C73.75 38.8696 69.5526 33.5559 60.6606 33.5559H49.9893ZM55.7759 38.27H59.8904C65.3114 38.27 67.7927 41.6143 67.7927 48.215C67.7927 54.8109 65.3309 58.0625 59.8904 58.0625H55.7759V38.27Z" fill="black"/>
</g>
<defs>
<clipPath id="clip0_421_355">
<rect width="97" height="97" fill="white"/>
</clipPath>
</defs>
</svg>
