<svg width="100" height="100" viewBox="0 0 100 100" fill="none" xmlns="http://www.w3.org/2000/svg">
<path d="M70.0362 0.800777H30.9166C27.8451 0.800777 24.8994 2.03076 22.7276 4.22014C20.5557 6.40952 19.3356 9.37895 19.3356 12.4752V26.5252C19.3266 26.8607 19.3844 27.1946 19.5055 27.5071C19.6267 27.8197 19.8088 28.1046 20.041 28.3451C20.2732 28.5855 20.5509 28.7766 20.8577 28.907C21.1644 29.0375 21.4939 29.1046 21.8268 29.1045C22.4937 29.0868 23.1273 28.8072 23.5927 28.3254C24.058 27.8436 24.3183 27.1977 24.3181 26.5252V12.4752C24.3181 10.6751 25.0275 8.94864 26.2902 7.67575C27.5529 6.40285 29.2655 5.68775 31.0513 5.68775H35.4278C35.5081 6.61977 35.9207 7.49089 36.5892 8.13981C37.2577 8.78873 38.1368 9.17149 39.0637 9.21722H61.8891C62.8503 9.2026 63.7711 8.82487 64.4693 8.15873C65.1675 7.4926 65.5923 6.58658 65.6597 5.61987H70.0362C71.822 5.61987 73.5346 6.33498 74.7973 7.60787C76.06 8.88077 76.7694 10.6072 76.7694 12.4073V26.5252C76.7692 27.1977 77.0295 27.8436 77.4948 28.3254C77.9602 28.8072 78.5938 29.0868 79.2607 29.1045C79.5936 29.1046 79.9231 29.0375 80.2298 28.907C80.5366 28.7766 80.8143 28.5855 81.0465 28.3451C81.2787 28.1046 81.4608 27.8197 81.582 27.5071C81.7031 27.1946 81.7609 26.8607 81.7519 26.5252V12.4752C81.752 10.9306 81.4481 9.40134 80.8577 7.97601C80.2673 6.55069 79.4022 5.25763 78.3125 4.17177C77.2228 3.0859 75.9301 2.22882 74.5095 1.65017C73.0888 1.07152 71.5684 0.782817 70.0362 0.800777Z" fill="black"/>
<path d="M79.126 73.0872C78.4592 73.1049 77.8255 73.3844 77.3602 73.8662C76.8948 74.348 76.6345 74.994 76.6347 75.6664V86.3227C76.6347 88.1229 75.9254 89.8493 74.6627 91.1222C73.3999 92.3951 71.6873 93.1102 69.9016 93.1102H30.9166C29.1309 93.1102 27.4183 92.3951 26.1556 91.1222C24.8928 89.8493 24.1835 88.1229 24.1835 86.3227V75.6664C24.1837 74.994 23.9234 74.348 23.458 73.8662C22.9927 73.3844 22.359 73.1049 21.6922 73.0872C21.3593 73.0871 21.0297 73.1542 20.723 73.2847C20.4163 73.4151 20.1386 73.6062 19.9064 73.8466C19.6741 74.087 19.492 74.372 19.3709 74.6845C19.2497 74.9971 19.1919 75.331 19.2009 75.6664V86.3227C19.2009 89.419 20.4211 92.3884 22.5929 94.5778C24.7648 96.7672 27.7105 97.9972 30.782 97.9972H70.0363C71.5571 97.9972 73.063 97.6952 74.4681 97.1085C75.8732 96.5218 77.1499 95.6619 78.2253 94.5778C79.3007 93.4937 80.1537 92.2068 80.7357 90.7904C81.3177 89.3739 81.6173 87.8559 81.6173 86.3227V75.6664C81.6263 75.331 81.5685 74.9971 81.4473 74.6845C81.3262 74.372 81.1441 74.087 80.9118 73.8466C80.6796 73.6062 80.4019 73.4151 80.0952 73.2847C79.7885 73.1542 79.4589 73.0871 79.126 73.0872Z" fill="black"/>
<path d="M41.353 86.8657C41.353 87.5138 41.6084 88.1353 42.0629 88.5935C42.5175 89.0518 43.1341 89.3092 43.7769 89.3092H57.2432C57.8861 89.3092 58.5026 89.0518 58.9572 88.5935C59.4118 88.1353 59.6672 87.5138 59.6672 86.8657C59.6672 86.2177 59.4118 85.5962 58.9572 85.1379C58.5026 84.6797 57.8861 84.4222 57.2432 84.4222H43.7769C43.1341 84.4222 42.5175 84.6797 42.0629 85.1379C41.6084 85.5962 41.353 86.2177 41.353 86.8657Z" fill="black"/>
<path d="M30.3324 64.2119L32.7691 56.1135H43.1693L45.6008 64.2119H52.1385L41.7487 32.706H34.5474L24.1161 64.2119H30.3376H30.3324ZM38.1247 38.7299L41.9302 51.4709H34.0497L37.8551 38.7299H38.1247ZM67.1477 32.706H54.7308V64.2119H60.8122V52.4635H66.3286L71.7723 64.2119H78.6522L72.41 51.5182C75.2356 50.4153 78.0612 47.2957 78.0612 42.6793C78.0612 36.6554 74.0535 32.706 67.1477 32.706ZM60.8122 47.7788V37.6007H66.256C69.5222 37.6007 71.6997 39.4231 71.6997 42.7948C71.6997 46.1193 69.5844 47.7841 66.1678 47.7841H60.8122V47.7788Z" fill="black"/>
</svg>
