<svg xmlns="http://www.w3.org/2000/svg" version="1.1" width="512px" height="512px" style="fill-rule:evenodd; clip-rule:evenodd" xmlns:xlink="http://www.w3.org/1999/xlink">
<g><path fill="#000000" d="M 511.5,164.5 C 511.5,213.833 511.5,263.167 511.5,312.5C 506.751,324.045 498.084,328.545 485.5,326C 478.333,324.167 473.833,319.667 472,312.5C 471.667,267.167 471.333,221.833 471,176.5C 468.5,152.667 455.333,139.5 431.5,137C 417.833,136.667 404.167,136.333 390.5,136C 372.568,132.391 358.735,122.891 349,107.5C 344.275,96.6583 339.941,85.6583 336,74.5C 332.041,68.6053 326.541,65.4386 319.5,65C 274.801,64.0315 230.134,64.3648 185.5,66C 181.396,68.1055 177.896,70.9389 175,74.5C 171.803,82.4225 168.803,90.4225 166,98.5C 157.353,118.907 142.187,131.407 120.5,136C 104.136,136.131 87.8024,136.797 71.5,138C 51.9013,143.353 41.4013,156.187 40,176.5C 39.8333,214.833 39.6667,253.167 39.5,291.5C 39.3565,332.525 39.8565,373.525 41,414.5C 45.1667,430.667 55.3333,440.833 71.5,445C 191.477,446.651 311.477,446.985 431.5,446C 449.676,444.502 462.176,435.335 469,418.5C 470.089,411.449 471.423,404.449 473,397.5C 479.453,387.014 488.62,383.847 500.5,388C 505.921,390.708 509.587,394.875 511.5,400.5C 511.5,406.5 511.5,412.5 511.5,418.5C 504.81,451.365 485.477,473.199 453.5,484C 450.211,484.882 446.877,485.548 443.5,486C 318.167,486.667 192.833,486.667 67.5,486C 38.0152,481.005 17.1819,464.838 5,437.5C 2.6729,431.172 0.839566,424.838 -0.5,418.5C -0.5,333.833 -0.5,249.167 -0.5,164.5C 6.79813,130.03 27.4648,107.864 61.5,98C 77.4611,96.7626 93.4611,96.0959 109.5,96C 116.578,95.5451 122.078,92.3785 126,86.5C 130.276,75.0053 134.943,63.672 140,52.5C 149.646,37.753 163.146,28.5863 180.5,25C 230.5,24.3333 280.5,24.3333 330.5,25C 350.981,29.8198 365.814,41.6532 375,60.5C 377.864,68.0916 380.531,75.7582 383,83.5C 386.691,91.2666 392.858,95.4333 401.5,96C 417.539,96.0959 433.539,96.7626 449.5,98C 483.535,107.864 504.202,130.03 511.5,164.5 Z"/></g>
<g><path fill="#000000" d="M 241.5,156.5 C 296.829,152.744 338.663,174.411 367,221.5C 386.333,261.5 386.333,301.5 367,341.5C 338.685,388.744 296.852,410.244 241.5,406C 199.112,399.916 167.278,378.416 146,341.5C 126.667,301.5 126.667,261.5 146,221.5C 167.433,184.569 199.266,162.903 241.5,156.5 Z M 244.5,197.5 C 282.519,194.641 311.353,209.308 331,241.5C 348.142,279.146 342.642,312.979 314.5,343C 288.221,365.771 258.554,371.438 225.5,360C 184.647,340.739 167.48,308.572 174,263.5C 184.091,227.059 207.591,205.059 244.5,197.5 Z"/></g>
</svg>
