<svg width="64" height="65" viewBox="0 0 64 65" fill="none" xmlns="http://www.w3.org/2000/svg">
<path d="M20.573 24.5161C21.0458 24.9975 21.6674 25.2369 22.289 25.2369C22.9105 25.2369 23.5321 24.9975 24.005 24.5161C24.9532 23.5557 24.9532 21.9979 24.005 21.0376L4.59028 1.35426C3.6421 0.393917 2.10647 0.393917 1.15828 1.35426C0.210097 2.3146 0.210097 3.87239 1.15828 4.83273L20.573 24.5161Z" fill="#fff"/>
<path d="M35.4296 32.6185L62.8392 4.83272C63.7874 3.87237 63.7874 2.31459 62.8392 1.35425C61.8911 0.393904 60.3554 -0.030721 59.4072 0.932091L30.284 30.0312H29.5625V30.883L0.799999 60.4043C-0.148188 61.3646 0.0321868 62.9224 0.977937 63.8827C1.45081 64.3641 2.16256 64.6036 2.78412 64.6036C3.40569 64.6036 4.07112 64.3641 4.544 63.8827L31.9756 36.0994L59.3951 63.8852C59.8679 64.3666 60.4968 64.6061 61.1159 64.6061C61.7351 64.6061 62.3615 64.3666 62.8344 63.8852C63.7826 62.9249 63.785 61.3671 62.8368 60.4067L35.4296 32.6185Z" fill="#fff"/>
</svg>
