<svg xmlns="http://www.w3.org/2000/svg" version="1.1" width="512px" height="512px" style="fill-rule:evenodd; clip-rule:evenodd" xmlns:xlink="http://www.w3.org/1999/xlink">
<g><path fill="#000000" d="M 79.5,41.5 C 111.168,41.3334 142.835,41.5 174.5,42C 188.355,46.531 193.855,56.031 191,70.5C 187.977,78.1915 182.477,83.0248 174.5,85C 144.835,85.5 115.169,85.6666 85.5,85.5C 85.6666,115.169 85.5,144.835 85,174.5C 80.469,188.355 70.969,193.855 56.5,191C 48.8085,187.977 43.9752,182.477 42,174.5C 41.3333,142.833 41.3333,111.167 42,79.5C 46.0131,58.3209 58.5131,45.6542 79.5,41.5 Z"/></g>
<g><path fill="#000000" d="M 336.5,41.5 C 368.168,41.3334 399.835,41.5 431.5,42C 452.667,45.8333 465.167,58.3333 469,79.5C 469.667,111.167 469.667,142.833 469,174.5C 464.469,188.355 454.969,193.855 440.5,191C 432.808,187.977 427.975,182.477 426,174.5C 425.5,144.835 425.333,115.169 425.5,85.5C 395.831,85.6666 366.165,85.5 336.5,85C 322.645,80.469 317.145,70.969 320,56.5C 323.198,48.7946 328.698,43.7946 336.5,41.5 Z"/></g>
<g><path fill="#000000" d="M 56.5,319.5 C 70.9591,317.137 80.4591,322.804 85,336.5C 85.5,366.165 85.6666,395.831 85.5,425.5C 115.169,425.333 144.835,425.5 174.5,426C 188.355,430.531 193.855,440.031 191,454.5C 187.977,462.192 182.477,467.025 174.5,469C 142.833,469.667 111.167,469.667 79.5,469C 60.414,465.913 48.2473,455.079 43,436.5C 41.8684,419.042 41.3684,401.542 41.5,384C 41.6667,368.167 41.8333,352.333 42,336.5C 44.1694,328.502 49.0028,322.835 56.5,319.5 Z"/></g>
<g><path fill="#000000" d="M 440.5,319.5 C 454.959,317.137 464.459,322.804 469,336.5C 469.667,368.167 469.667,399.833 469,431.5C 465.167,452.667 452.667,465.167 431.5,469C 399.833,469.667 368.167,469.667 336.5,469C 322.645,464.469 317.145,454.969 320,440.5C 323.023,432.808 328.523,427.975 336.5,426C 366.165,425.5 395.831,425.333 425.5,425.5C 425.333,395.831 425.5,366.165 426,336.5C 428.169,328.502 433.003,322.835 440.5,319.5 Z"/></g>
</svg>