<svg width="423" height="422" viewBox="0 0 423 422" fill="none" xmlns="http://www.w3.org/2000/svg"><path fill-rule="evenodd" clip-rule="evenodd" d="M177 326.558C259.599 326.558 326.558 259.599 326.558 177C326.558 94.4013 259.599 27.4419 177 27.4419C94.4013 27.4419 27.4419 94.4013 27.4419 177C27.4419 259.599 94.4013 326.558 177 326.558ZM177 354C274.754 354 354 274.754 354 177C354 79.2456 274.754 0 177 0C79.2456 0 0 79.2456 0 177C0 274.754 79.2456 354 177 354Z" fill="black"/><path d="M407.217 375.104C415.809 383.696 415.809 397.625 407.217 406.217V406.217C398.626 414.809 384.696 414.809 376.105 406.217L324.285 354.398C315.694 345.806 315.694 331.877 324.285 323.285V323.285C332.877 314.694 346.807 314.694 355.398 323.285L407.217 375.104Z" fill="black"/><path d="M117.102 196C108.209 196 101 187.493 101 177V177C101 166.507 108.209 158 117.102 158L235.898 158C244.791 158 252 166.507 252 177V177C252 187.493 244.791 196 235.898 196L117.102 196Z" fill="black"/></svg>