<svg width="423" height="422" viewBox="0 0 423 422" fill="none" xmlns="http://www.w3.org/2000/svg"><path fill-rule="evenodd" clip-rule="evenodd" d="M177 326.558C259.599 326.558 326.558 259.599 326.558 177C326.558 94.4013 259.599 27.4419 177 27.4419C94.4013 27.4419 27.4419 94.4013 27.4419 177C27.4419 259.599 94.4013 326.558 177 326.558ZM177 354C274.754 354 354 274.754 354 177C354 79.2456 274.754 0 177 0C79.2456 0 0 79.2456 0 177C0 274.754 79.2456 354 177 354Z" fill="black"/><path d="M407.217 375.104C415.809 383.696 415.809 397.625 407.217 406.217V406.217C398.626 414.809 384.696 414.809 376.105 406.217L324.285 354.398C315.694 345.806 315.694 331.877 324.285 323.285V323.285C332.877 314.694 346.807 314.694 355.398 323.285L407.217 375.104Z" fill="black"/><path fill-rule="evenodd" clip-rule="evenodd" d="M177.5 101C168.607 101 161.398 108.209 161.398 117.102V160.398H118.102C109.209 160.398 102 167.607 102 176.5C102 185.393 109.209 192.602 118.102 192.602H161.398V235.898C161.398 244.791 168.607 252 177.5 252C186.393 252 193.602 244.791 193.602 235.898V192.602H236.898C245.791 192.602 253 185.393 253 176.5C253 167.607 245.791 160.398 236.898 160.398H193.602V117.102C193.602 108.209 186.393 101 177.5 101Z" fill="black"/></svg>