<svg width="81" height="88" viewBox="0 0 81 88" fill="none" xmlns="http://www.w3.org/2000/svg">
<path d="M78.1595 18.8798L78.1602 18.8802C78.6921 19.1364 79.1568 19.5613 79.4883 20.1155C79.8202 20.6703 80.0005 21.3253 80 22.0001V22.0008V66.0003V66.001C80.0005 66.6759 79.8202 67.3308 79.4883 67.8856C79.1568 68.4398 78.6921 68.8647 78.1602 69.1209L78.1595 69.1213L42.7019 86.2419L42.6755 86.1701L41.6697 86.6888C41.2955 86.8818 40.8927 86.9865 40.4861 87C40.0804 86.9979 39.6758 86.9078 39.2919 86.7217L39.2905 86.7211L2.84076 69.1214C2.84068 69.1214 2.8406 69.1213 2.84051 69.1213C1.74961 68.5941 1 67.3929 1 66.0003V22.0049C1.00273 21.6898 1.04421 21.3771 1.12295 21.0753C1.12409 21.0718 1.12938 21.0564 1.14824 21.0091C1.14988 21.0049 1.15174 21.0003 1.15378 20.9952C1.17229 20.949 1.20589 20.8652 1.2346 20.7743C1.29893 20.5847 1.37626 20.4012 1.46575 20.2255C1.49045 20.185 1.50623 20.1632 1.52937 20.1311C1.55631 20.0938 1.59323 20.0427 1.66583 19.9322L1.66688 19.9307C1.8251 19.689 2.01503 19.4792 2.22794 19.3073L2.22799 19.3074L2.23739 19.2996C2.28194 19.2627 2.31981 19.2279 2.34889 19.2004C2.37001 19.1804 2.3929 19.158 2.40782 19.1434C2.41152 19.1398 2.41472 19.1367 2.4173 19.1342C2.42053 19.131 2.42346 19.1282 2.42611 19.1256C2.42822 19.1246 2.43049 19.1236 2.43292 19.1224L2.46957 19.1055C2.48356 19.0991 2.50156 19.0909 2.52011 19.0822C2.55729 19.0648 2.60658 19.0412 2.66028 19.012L2.67829 19.0022L2.69588 18.9917C2.75753 18.9549 2.80766 18.9188 2.84368 18.8915C2.86176 18.8778 2.88063 18.8629 2.89481 18.8516L39.2864 1.28006C39.2864 1.28005 39.2864 1.28004 39.2865 1.28004C39.6712 1.09429 40.0837 1 40.498 1C40.9123 1 41.3247 1.09429 41.7095 1.28004C41.7095 1.28004 41.7095 1.28005 41.7095 1.28006L78.1595 18.8798ZM40.9347 8.31844L40.5 8.10857L40.0652 8.31846L13.5904 21.1003L11.7252 22.0008L13.5903 22.9014L34.7678 33.1268L34.768 33.1269L40.0654 35.6833L40.5001 35.8931L40.9347 35.6832L67.4136 22.9014L69.2792 22.0008L67.4136 21.1003L40.9347 8.31844ZM7.1 63.1447V63.7724L7.66531 64.0453L36.0153 77.7291L37.45 78.4216V76.8285V42.4606V41.8329L36.8848 41.5601L8.5348 27.8718L7.1 27.1791V28.7724V63.1447ZM43.55 76.8285V78.4216L44.9847 77.7291L73.3347 64.0453L73.9 63.7724V63.1447V28.7724V27.1791L72.4652 27.8718L44.1152 41.5601L43.55 41.8329V42.4606V76.8285Z" stroke="white" stroke-width="2"/>
</svg>
